<svg width="182" height="88" viewBox="0 0 200 100" fill="none" xmlns="http://www.w3.org/2000/svg">
<path d="M65.5022 35.0947C65.5022 41.4307 64.0942 47.2547 61.2782 52.5667C58.4622 57.8147 54.5582 61.9747 49.5662 65.0467C44.6382 68.1187 39.0702 69.6547 32.8622 69.6547C26.6542 69.6547 21.0542 68.1187 16.0622 65.0467C11.1342 61.9747 7.26224 57.8147 4.44624 52.5667C1.69424 47.2547 0.318241 41.4307 0.318241 35.0947C0.318241 28.7587 1.69424 22.9667 4.44624 17.7187C7.26224 12.4067 11.1342 8.21474 16.0622 5.14273C21.0542 2.07074 26.6542 0.534737 32.8622 0.534737C39.0702 0.534737 44.6382 2.07074 49.5662 5.14273C54.5582 8.21474 58.4622 12.4067 61.2782 17.7187C64.0942 22.9667 65.5022 28.7587 65.5022 35.0947ZM53.0222 35.0947C53.0222 30.8067 52.1582 26.9347 50.4302 23.4787C48.7022 19.9587 46.3022 17.1747 43.2302 15.1267C40.1582 13.0787 36.7022 12.0547 32.8622 12.0547C28.9582 12.0547 25.4702 13.0787 22.3982 15.1267C19.3902 17.1107 17.0222 19.8627 15.2942 23.3827C13.6302 26.9027 12.7982 30.8067 12.7982 35.0947C12.7982 39.3827 13.6302 43.2867 15.2942 46.8067C17.0222 50.3267 19.3902 53.1107 22.3982 55.1587C25.4702 57.1427 28.9582 58.1347 32.8622 58.1347C36.7022 58.1347 40.1582 57.1107 43.2302 55.0627C46.3022 53.0147 48.7022 50.2627 50.4302 46.8067C52.1582 43.2867 53.0222 39.3827 53.0222 35.0947ZM102.154 16.3747C106.57 16.3747 110.57 17.5267 114.154 19.8307C117.738 22.0707 120.554 25.2067 122.602 29.2387C124.714 33.2707 125.77 37.8467 125.77 42.9667C125.77 48.0867 124.746 52.6947 122.698 56.7907C120.65 60.8227 117.834 63.9907 114.25 66.2947C110.73 68.5347 106.826 69.6547 102.538 69.6547C99.466 69.6547 96.554 69.0467 93.802 67.8307C91.114 66.5507 88.874 65.0147 87.082 63.2227V82.0387C87.082 83.7027 86.538 85.0787 85.45 86.1667C84.362 87.3187 82.986 87.8947 81.322 87.8947C79.658 87.8947 78.282 87.3507 77.194 86.2627C76.106 85.1747 75.562 83.7667 75.562 82.0387V23.1907C75.562 21.5267 76.106 20.1507 77.194 19.0627C78.282 17.9107 79.658 17.3347 81.322 17.3347C82.986 17.3347 84.362 17.9107 85.45 19.0627C86.538 20.1507 87.082 21.5267 87.082 23.1907V23.5747C88.618 21.6547 90.762 19.9907 93.514 18.5827C96.266 17.1107 99.146 16.3747 102.154 16.3747ZM100.714 59.0947C104.81 59.0947 108.17 57.5587 110.794 54.4867C113.418 51.4147 114.73 47.5747 114.73 42.9667C114.73 38.3587 113.418 34.5507 110.794 31.5427C108.234 28.4707 104.874 26.9347 100.714 26.9347C96.554 26.9347 93.162 28.4707 90.538 31.5427C87.914 34.5507 86.602 38.3587 86.602 42.9667C86.602 47.5747 87.914 51.4147 90.538 54.4867C93.162 57.5587 96.554 59.0947 100.714 59.0947ZM181.454 41.8147C181.39 43.3507 180.782 44.5987 179.63 45.5587C178.478 46.5187 177.134 46.9987 175.598 46.9987H143.918C144.686 50.7747 146.446 53.7507 149.198 55.9267C151.95 58.0387 155.054 59.0947 158.51 59.0947C161.134 59.0947 163.182 58.8707 164.654 58.4227C166.126 57.9107 167.278 57.3987 168.11 56.8867C169.006 56.3107 169.614 55.9267 169.934 55.7347C171.086 55.1587 172.174 54.8707 173.198 54.8707C174.542 54.8707 175.694 55.3507 176.654 56.3107C177.614 57.2707 178.094 58.3907 178.094 59.6707C178.094 61.3987 177.198 62.9667 175.406 64.3747C173.614 65.8467 171.214 67.0947 168.206 68.1187C165.198 69.1427 162.158 69.6547 159.086 69.6547C153.71 69.6547 149.006 68.5347 144.974 66.2947C141.006 64.0547 137.934 60.9827 135.758 57.0787C133.582 53.1107 132.494 48.6627 132.494 43.7347C132.494 38.2307 133.646 33.3987 135.95 29.2387C138.254 25.0787 141.294 21.9107 145.07 19.7347C148.846 17.4947 152.878 16.3747 157.166 16.3747C161.39 16.3747 165.358 17.5267 169.07 19.8307C172.846 22.1347 175.854 25.2387 178.094 29.1427C180.334 33.0467 181.454 37.2707 181.454 41.8147ZM157.166 26.9347C149.742 26.9347 145.358 30.4227 144.014 37.3987H169.166V36.7267C168.91 34.0387 167.598 31.7347 165.23 29.8147C162.862 27.8947 160.174 26.9347 157.166 26.9347Z" fill="#635BFF"/>
<path d="M61.2782 52.5667L63.0406 53.5124L63.0453 53.5035L61.2782 52.5667ZM49.5662 65.0467L48.518 63.3434L48.5082 63.3495L49.5662 65.0467ZM16.0622 65.0467L15.0042 66.744L15.014 66.7501L16.0622 65.0467ZM4.44624 52.5667L2.67041 53.4867L2.67707 53.4996L2.68392 53.5124L4.44624 52.5667ZM4.44624 17.7187L2.67917 16.782L2.675 16.7899L4.44624 17.7187ZM16.0622 5.14273L15.014 3.43939L15.0042 3.4455L16.0622 5.14273ZM49.5662 5.14273L48.5082 6.84L48.518 6.84605L49.5662 5.14273ZM61.2782 17.7187L59.5112 18.6555L59.5159 18.6644L61.2782 17.7187ZM50.4302 23.4787L48.6349 24.3601L48.6381 24.3666L48.6414 24.3732L50.4302 23.4787ZM22.3982 15.1267L23.4994 16.7963L23.5076 16.7908L22.3982 15.1267ZM15.2942 23.3827L13.4989 22.5014L13.4924 22.5146L13.4861 22.528L15.2942 23.3827ZM15.2942 46.8067L13.4861 47.6615L13.4924 47.6748L13.4989 47.6881L15.2942 46.8067ZM22.3982 55.1587L21.2727 56.8119L21.2928 56.8256L21.3132 56.8388L22.3982 55.1587ZM43.2302 55.0627L44.3396 56.7268L44.3396 56.7268L43.2302 55.0627ZM50.4302 46.8067L52.2191 47.7012L52.2224 47.6946L52.2256 47.6881L50.4302 46.8067ZM63.5022 35.0947C63.5022 41.1223 62.1659 46.6222 59.5112 51.63L63.0453 53.5035C66.0225 47.8873 67.5022 41.7392 67.5022 35.0947H63.5022ZM59.5159 51.6211C56.8641 56.5632 53.2043 60.4596 48.518 63.3434L50.6144 66.7501C55.9122 63.4899 60.0604 59.0663 63.0406 53.5124L59.5159 51.6211ZM48.5082 63.3495C43.9197 66.2099 38.7231 67.6547 32.8622 67.6547V71.6547C39.4174 71.6547 45.3567 70.0276 50.6243 66.744L48.5082 63.3495ZM32.8622 67.6547C27.0015 67.6547 21.7683 66.2098 17.1104 63.3434L15.014 66.7501C20.3402 70.0277 26.307 71.6547 32.8622 71.6547V67.6547ZM17.1203 63.3495C12.4965 60.4671 8.86386 56.5696 6.20856 51.6211L2.68392 53.5124C5.66062 59.0599 9.77202 63.4823 15.0042 66.744L17.1203 63.3495ZM6.22207 51.6467C3.62606 46.6358 2.31824 41.13 2.31824 35.0947H-1.68176C-1.68176 41.7315 -0.237582 47.8737 2.67041 53.4867L6.22207 51.6467ZM2.31824 35.0947C2.31824 29.0593 3.62608 23.5893 6.21748 18.6476L2.675 16.7899C-0.237593 22.3442 -1.68176 28.4582 -1.68176 35.0947H2.31824ZM6.2133 18.6555C8.87023 13.6436 12.5024 9.71865 17.1203 6.83997L15.0042 3.4455C9.76611 6.71082 5.65426 11.1699 2.67918 16.782L6.2133 18.6555ZM17.1104 6.84605C21.7683 3.97966 27.0015 2.53474 32.8622 2.53474V-1.46526C26.307 -1.46526 20.3402 0.161808 15.014 3.43942L17.1104 6.84605ZM32.8622 2.53474C38.7231 2.53474 43.9197 3.97962 48.5082 6.83997L50.6243 3.4455C45.3567 0.161853 39.4174 -1.46526 32.8622 -1.46526V2.53474ZM48.518 6.84605C53.1983 9.7262 56.8577 13.65 59.5112 18.6555L63.0453 16.782C60.0668 11.1634 55.9182 6.70327 50.6144 3.43942L48.518 6.84605ZM59.5159 18.6644C62.1659 23.6031 63.5022 29.067 63.5022 35.0947H67.5022C67.5022 28.4505 66.0225 22.3304 63.0406 16.7731L59.5159 18.6644ZM55.0222 35.0947C55.0222 30.5308 54.1006 26.3473 52.2191 22.5843L48.6414 24.3732C50.2159 27.5221 51.0222 31.0827 51.0222 35.0947H55.0222ZM52.2256 22.5974C50.352 18.7809 47.7237 15.7187 44.3396 13.4626L42.1208 16.7908C44.8808 18.6308 47.0524 21.1366 48.6349 24.3601L52.2256 22.5974ZM44.3396 13.4626C40.9255 11.1865 37.0804 10.0547 32.8622 10.0547V14.0547C36.3241 14.0547 39.391 14.971 42.1208 16.7908L44.3396 13.4626ZM32.8622 10.0547C28.5873 10.0547 24.7087 11.1827 21.2888 13.4626L23.5076 16.7908C26.2318 14.9747 29.3292 14.0547 32.8622 14.0547V10.0547ZM21.2971 13.4572C17.9656 15.6545 15.3696 18.6906 13.4989 22.5014L17.0896 24.2641C18.6748 21.0348 20.8149 18.567 23.4994 16.7963L21.2971 13.4572ZM13.4861 22.528C11.6834 26.3413 10.7982 30.5414 10.7982 35.0947H14.7982C14.7982 31.072 15.5771 27.4642 17.1024 24.2375L13.4861 22.528ZM10.7982 35.0947C10.7982 39.648 11.6834 43.8482 13.4861 47.6615L17.1024 45.952C15.5771 42.7253 14.7982 39.1174 14.7982 35.0947H10.7982ZM13.4989 47.6881C15.3673 51.4941 17.9563 54.554 21.2727 56.8119L23.5238 53.5055C20.8242 51.6675 18.6771 49.1593 17.0896 45.9254L13.4989 47.6881ZM21.3132 56.8388C24.7307 59.0459 28.6005 60.1347 32.8622 60.1347V56.1347C29.316 56.1347 26.2098 55.2395 23.4833 53.4787L21.3132 56.8388ZM32.8622 60.1347C37.0804 60.1347 40.9255 59.003 44.3396 56.7268L42.1208 53.3986C39.391 55.2185 36.3241 56.1347 32.8622 56.1347V60.1347ZM44.3396 56.7268C47.7149 54.4766 50.343 51.4534 52.2191 47.7012L48.6414 45.9123C47.0615 49.0721 44.8895 51.5528 42.1208 53.3986L44.3396 56.7268ZM52.2256 47.6881C54.1005 43.8689 55.0222 39.6593 55.0222 35.0947H51.0222C51.0222 39.1062 50.216 42.7046 48.6349 45.9254L52.2256 47.6881ZM114.154 19.8307L113.072 21.5131L113.083 21.52L113.094 21.5267L114.154 19.8307ZM122.602 29.2387L120.819 30.1445L120.825 30.1556L120.83 30.1668L122.602 29.2387ZM122.698 56.7907L124.481 57.6965L124.487 57.6852L122.698 56.7907ZM114.25 66.2947L115.324 67.9821L115.332 67.9771L114.25 66.2947ZM93.802 67.8307L92.9421 69.6365L92.9677 69.6487L92.9937 69.6601L93.802 67.8307ZM87.082 63.2227L88.4962 61.8085L85.082 58.3943V63.2227H87.082ZM85.45 86.1667L84.0358 84.7525L84.0156 84.7727L83.996 84.7935L85.45 86.1667ZM77.194 86.2627L75.7798 87.677L75.7798 87.677L77.194 86.2627ZM77.194 19.0627L78.6082 20.477L78.6284 20.4568L78.648 20.436L77.194 19.0627ZM85.45 19.0627L83.996 20.436L84.0156 20.4568L84.0358 20.477L85.45 19.0627ZM87.082 23.5747H85.082V29.2763L88.6437 24.8241L87.082 23.5747ZM93.514 18.5827L94.4249 20.3632L94.4412 20.3549L94.4573 20.3463L93.514 18.5827ZM110.794 54.4867L109.273 53.1878L109.273 53.1878L110.794 54.4867ZM110.794 31.5427L109.258 32.8231L109.272 32.8405L109.287 32.8575L110.794 31.5427ZM90.538 31.5427L92.0451 32.8575L92.052 32.8496L92.0587 32.8417L90.538 31.5427ZM90.538 54.4867L89.0172 55.7857L89.0172 55.7857L90.538 54.4867ZM102.154 18.3747C106.201 18.3747 109.823 19.4243 113.072 21.5131L115.236 18.1484C111.317 15.6292 106.939 14.3747 102.154 14.3747V18.3747ZM113.094 21.5267C116.348 23.5604 118.924 26.4132 120.819 30.1445L124.385 28.333C122.184 24.0003 119.128 20.5811 115.214 18.1347L113.094 21.5267ZM120.83 30.1668C122.774 33.8783 123.77 38.1291 123.77 42.9667H127.77C127.77 37.5644 126.654 32.6632 124.374 28.3107L120.83 30.1668ZM123.77 42.9667C123.77 47.8133 122.803 52.1094 120.909 55.8963L124.487 57.6852C126.689 53.2801 127.77 48.3602 127.77 42.9667H123.77ZM120.915 55.885C119.017 59.6206 116.435 62.5123 113.168 64.6124L115.332 67.9771C119.233 65.4692 122.283 62.0249 124.481 57.6965L120.915 55.885ZM113.176 64.6074C109.986 66.6373 106.457 67.6547 102.538 67.6547V71.6547C107.195 71.6547 111.474 70.4322 115.324 67.9821L113.176 64.6074ZM102.538 67.6547C99.7384 67.6547 97.1022 67.1024 94.6103 66.0014L92.9937 69.6601C96.0057 70.991 99.1936 71.6547 102.538 71.6547V67.6547ZM94.6619 66.025C92.1444 64.8262 90.1017 63.414 88.4962 61.8085L85.6678 64.637C87.6463 66.6155 90.0835 68.2752 92.9421 69.6365L94.6619 66.025ZM85.082 63.2227V82.0387H89.082V63.2227H85.082ZM85.082 82.0387C85.082 83.22 84.7163 84.072 84.0358 84.7525L86.8642 87.581C88.3597 86.0854 89.082 84.1855 89.082 82.0387H85.082ZM83.996 84.7935C83.3065 85.5235 82.4667 85.8947 81.322 85.8947V89.8947C83.5053 89.8947 85.4174 89.114 86.904 87.54L83.996 84.7935ZM81.322 85.8947C80.1407 85.8947 79.2887 85.529 78.6082 84.8485L75.7798 87.677C77.2753 89.1725 79.1753 89.8947 81.322 89.8947V85.8947ZM78.6082 84.8485C77.9428 84.1832 77.562 83.3076 77.562 82.0387H73.562C73.562 84.2259 74.2691 86.1663 75.7798 87.677L78.6082 84.8485ZM77.562 82.0387V23.1907H73.562V82.0387H77.562ZM77.562 23.1907C77.562 22.0095 77.9277 21.1574 78.6082 20.477L75.7798 17.6485C74.2843 19.144 73.562 21.044 73.562 23.1907H77.562ZM78.648 20.436C79.3374 19.706 80.1773 19.3347 81.322 19.3347V15.3347C79.1387 15.3347 77.2265 16.1155 75.74 17.6895L78.648 20.436ZM81.322 19.3347C82.4667 19.3347 83.3065 19.706 83.996 20.436L86.904 17.6895C85.4174 16.1155 83.5053 15.3347 81.322 15.3347V19.3347ZM84.0358 20.477C84.7163 21.1574 85.082 22.0095 85.082 23.1907H89.082C89.082 21.044 88.3597 19.144 86.8642 17.6485L84.0358 20.477ZM85.082 23.1907V23.5747H89.082V23.1907H85.082ZM88.6437 24.8241C89.9635 23.1744 91.8622 21.6744 94.4249 20.3632L92.603 16.8022C89.6618 18.3071 87.2725 20.1351 85.5203 22.3253L88.6437 24.8241ZM94.4573 20.3463C96.9304 19.0235 99.4877 18.3747 102.154 18.3747V14.3747C98.8043 14.3747 95.6016 15.198 92.5707 16.8192L94.4573 20.3463ZM100.714 61.0947C105.386 61.0947 109.305 59.3096 112.315 55.7857L109.273 53.1878C107.035 55.8079 104.234 57.0947 100.714 57.0947V61.0947ZM112.315 55.7857C115.291 52.301 116.73 47.9799 116.73 42.9667H112.73C112.73 47.1696 111.545 50.5285 109.273 53.1878L112.315 55.7857ZM116.73 42.9667C116.73 37.9546 115.291 33.6559 112.301 30.228L109.287 32.8575C111.545 35.4456 112.73 38.7629 112.73 42.9667H116.73ZM112.33 30.2624C109.373 26.7137 105.44 24.9347 100.714 24.9347V28.9347C104.308 28.9347 107.095 30.2278 109.258 32.8231L112.33 30.2624ZM100.714 24.9347C95.9889 24.9347 92.034 26.712 89.0172 30.2438L92.0587 32.8417C94.29 30.2295 97.1191 28.9347 100.714 28.9347V24.9347ZM89.0309 30.228C86.0406 33.6559 84.602 37.9546 84.602 42.9667H88.602C88.602 38.7629 89.7874 35.4456 92.0451 32.8575L89.0309 30.228ZM84.602 42.9667C84.602 47.9799 86.0407 52.301 89.0172 55.7857L92.0587 53.1878C89.7873 50.5285 88.602 47.1696 88.602 42.9667H84.602ZM89.0172 55.7857C92.034 59.3175 95.9889 61.0947 100.714 61.0947V57.0947C97.1191 57.0947 94.29 55.8 92.0587 53.1878L89.0172 55.7857ZM181.454 41.8147L183.453 41.898L183.454 41.8564V41.8147H181.454ZM143.918 46.9987V44.9987H141.471L141.959 47.3974L143.918 46.9987ZM149.198 55.9267L147.958 57.4956L147.969 57.5045L147.981 57.5134L149.198 55.9267ZM164.654 58.4227L165.237 60.3361L165.274 60.3246L165.312 60.3117L164.654 58.4227ZM168.11 56.8867L169.159 58.5901L169.175 58.5797L169.192 58.5691L168.11 56.8867ZM169.934 55.7347L169.04 53.9459L168.971 53.9802L168.905 54.0198L169.934 55.7347ZM175.406 64.3747L174.171 62.8021L174.154 62.8155L174.137 62.8293L175.406 64.3747ZM168.206 68.1187L167.562 66.2254L167.562 66.2254L168.206 68.1187ZM144.974 66.2947L143.991 68.0364L144.003 68.0431L144.974 66.2947ZM135.758 57.0787L134.005 58.0404L134.012 58.0525L135.758 57.0787ZM135.95 29.2387L134.201 28.2697L134.201 28.2697L135.95 29.2387ZM145.07 19.7347L146.069 21.4676L146.08 21.4613L146.091 21.4548L145.07 19.7347ZM169.07 19.8307L168.016 21.53L168.022 21.534L168.029 21.538L169.07 19.8307ZM178.094 29.1427L179.829 28.1474L179.829 28.1474L178.094 29.1427ZM144.014 37.3987L142.051 37.0204L141.592 39.3987H144.014V37.3987ZM169.166 37.3987V39.3987H171.166V37.3987H169.166ZM169.166 36.7267H171.166V36.6317L171.157 36.5371L169.166 36.7267ZM179.456 41.7315C179.415 42.7196 179.056 43.4339 178.35 44.0223L180.911 47.0952C182.509 45.7636 183.366 43.9818 183.453 41.898L179.456 41.7315ZM178.35 44.0223C177.567 44.6749 176.679 44.9987 175.598 44.9987V48.9987C177.59 48.9987 179.39 48.3625 180.911 47.0952L178.35 44.0223ZM175.598 44.9987H143.918V48.9987H175.598V44.9987ZM141.959 47.3974C142.811 51.5873 144.798 54.9972 147.958 57.4956L150.439 54.3579C148.095 52.5043 146.562 49.9621 145.878 46.6001L141.959 47.3974ZM147.981 57.5134C151.081 59.8923 154.612 61.0947 158.51 61.0947V57.0947C155.497 57.0947 152.82 56.1851 150.416 54.3401L147.981 57.5134ZM158.51 61.0947C161.214 61.0947 163.489 60.868 165.237 60.3361L164.072 56.5094C162.876 56.8735 161.055 57.0947 158.51 57.0947V61.0947ZM165.312 60.3117C166.85 59.7767 168.153 59.209 169.159 58.5901L167.062 55.1834C166.404 55.5885 165.403 56.0448 163.997 56.5337L165.312 60.3117ZM169.192 58.5691C170.091 57.9909 170.674 57.6234 170.963 57.4497L168.905 54.0198C168.555 54.2301 167.922 54.6305 167.029 55.2044L169.192 58.5691ZM170.829 57.5236C171.773 57.0515 172.555 56.8707 173.198 56.8707V52.8707C171.794 52.8707 170.4 53.2659 169.04 53.9459L170.829 57.5236ZM173.198 56.8707C174.006 56.8707 174.651 57.1357 175.24 57.725L178.069 54.8965C176.738 53.5657 175.079 52.8707 173.198 52.8707V56.8707ZM175.24 57.725C175.85 58.3351 176.094 58.9558 176.094 59.6707H180.094C180.094 57.8256 179.379 56.2063 178.069 54.8965L175.24 57.725ZM176.094 59.6707C176.094 60.6009 175.646 61.6427 174.171 62.8021L176.642 65.9474C178.751 64.2907 180.094 62.1966 180.094 59.6707H176.094ZM174.137 62.8293C172.586 64.1037 170.421 65.2522 167.562 66.2254L168.851 70.012C172.008 68.9373 174.643 67.5898 176.676 65.9202L174.137 62.8293ZM167.562 66.2254C164.754 67.1812 161.932 67.6547 159.086 67.6547V71.6547C162.385 71.6547 165.643 71.1042 168.851 70.012L167.562 66.2254ZM159.086 67.6547C153.994 67.6547 149.635 66.5959 145.946 64.5464L144.003 68.0431C148.378 70.4736 153.427 71.6547 159.086 71.6547V67.6547ZM145.958 64.5531C142.303 62.4902 139.499 59.6811 137.505 56.105L134.012 58.0525C136.37 62.2843 139.71 65.6192 143.991 68.0364L145.958 64.5531ZM137.512 56.1171C135.512 52.4696 134.494 48.3572 134.494 43.7347H130.494C130.494 48.9682 131.653 53.7519 134.005 58.0404L137.512 56.1171ZM134.494 43.7347C134.494 38.5159 135.585 34.0274 137.7 30.2077L134.201 28.2697C131.708 32.7701 130.494 37.9456 130.494 43.7347H134.494ZM137.7 30.2077C139.844 26.3359 142.637 23.4456 146.069 21.4676L144.072 18.0019C139.952 20.3759 136.665 23.8215 134.201 28.2697L137.7 30.2077ZM146.091 21.4548C149.566 19.3935 153.246 18.3747 157.166 18.3747V14.3747C152.511 14.3747 148.127 15.596 144.05 18.0146L146.091 21.4548ZM157.166 18.3747C161.005 18.3747 164.609 19.4155 168.016 21.53L170.125 18.1315C166.108 15.638 161.776 14.3747 157.166 14.3747V18.3747ZM168.029 21.538C171.512 23.6636 174.284 26.5206 176.36 30.1381L179.829 28.1474C177.425 23.9569 174.181 20.6059 170.112 18.1235L168.029 21.538ZM176.36 30.1381C178.424 33.7361 179.454 37.6165 179.454 41.8147H183.454C183.454 36.925 182.245 32.3574 179.829 28.1474L176.36 30.1381ZM157.166 24.9347C153.15 24.9347 149.712 25.8802 147.065 27.9857C144.408 30.0995 142.788 33.1928 142.051 37.0204L145.978 37.7771C146.585 34.6286 147.829 32.4899 149.556 31.1158C151.293 29.7332 153.759 28.9347 157.166 28.9347V24.9347ZM144.014 39.3987H169.166V35.3987H144.014V39.3987ZM171.166 37.3987V36.7267H167.166V37.3987H171.166ZM171.157 36.5371C170.844 33.2438 169.216 30.4716 166.49 28.2612L163.971 31.3682C165.981 32.9979 166.977 34.8337 167.176 36.9164L171.157 36.5371ZM166.49 28.2612C163.771 26.0566 160.64 24.9347 157.166 24.9347V28.9347C159.709 28.9347 161.954 29.7329 163.971 31.3682L166.49 28.2612Z" fill="#F9A8D4"/>
</svg>
