<svg xmlns="http://www.w3.org/2000/svg" xmlns:xlink="http://www.w3.org/1999/xlink" width="539.227" height="195.527" viewBox="0 0 539.227 195.527"><defs><path id="a" d="M0 0h539.227v195.527H0z"/></defs><clipPath id="b"><use xlink:href="#a" overflow="visible"/></clipPath><path clip-path="url(#b)" fill="#00466B" d="M105.247 83.921s5.14-1.628 9.892-2.777c7.278-1.759 10.859-2.559 10.859-2.559V43.348c0-2.709.685-6.043 1.597-8.336 4.104-10.003 15.278-19.59 30.329-19.59 20.752 0 28.961 14.172 28.961 31.886V99.64h20.752V45.641C207.637 7.711 179.816 0 164.765 0c-20.295 0-34.434 10.629-40.135 20.424h-.684l-1.14-17.923h-18.472c.685 8.545.913 17.506.913 27.718v53.702zm326.765.807c.746-3.135 1.15-5.119 1.298-8.974.598-15.41-10.162-24.278-31.369-30.53-15.506-4.585-23.26-8.336-23.26-17.089 0-7.92 6.842-14.172 19.612-14.172 11.631 0 20.98 3.96 25.312 6.461l5.018-13.755C422.01 2.918 411.291 0 399.205 0c-25.996 0-40.818 13.963-40.818 30.219 0 12.296 9.804 22.507 31.697 28.551 15.734 4.377 22.576 8.753 22.576 17.923 0 1-.512 3.244-.512 3.244s4.889 1.015 10.239 2.359c6.363 1.599 9.625 2.432 9.625 2.432M352.195 2.501h-20.752v97.112h20.752V2.501zM180.693 99.914s-18.092-.429-74.644 7.711C44.244 116.521 0 132.158 0 132.158s38.749-23.646 98.158-40.009c51.878-14.289 82.535-15.937 82.535-15.937v23.702zm177.84-23.702s30.658 1.648 82.535 15.937c59.41 16.363 98.158 40.009 98.158 40.009s-44.244-15.637-106.048-24.533c-56.551-8.14-74.645-7.711-74.645-7.711V76.212z"/><path clip-path="url(#b)" fill="#72BF44" d="M324.475 28.76c0-11.045.228-18.965.912-26.259h-18.471l-.683 16.464h-.457C300.303 9.587 288.444 0 266.78 0c-28.505 0-54.73 20.632-54.73 53.768 0 27.301 21.664 49.183 51.766 49.183 19.612 0 32.839-8.544 39.678-18.547h.458v11.462c0 26.467-17.104 36.886-39.908 36.886-15.279 0-28.049-4.376-36.259-9.169l-5.245 14.588c9.807 6.253 26.225 9.379 40.82 9.379 14.367 0 31.47-2.709 43.785-12.505 11.629-9.379 17.33-24.799 17.33-47.099V28.76zm-20.752 29.385c0 3.334-.684 7.086-1.824 10.003-4.561 11.671-17.102 20.424-31.926 20.424-25.084 0-36.943-18.131-36.943-35.846 0-23.758 15.964-38.346 37.172-38.346 16.417 0 28.048 8.962 32.382 20.841.684 2.709 1.139 5.418 1.139 8.544v14.38z"/><path clip-path="url(#b)" fill="#00466B" d="M68.984 176.21c0-2.101-.038-4.056-.148-5.898h3.023l.184 3.281h.074c1.401-2.249 3.76-3.724 7.152-3.724 4.718 0 8.368 3.76 8.368 9.032 0 6.378-4.313 9.696-8.958 9.696-2.617 0-5.014-1.032-6.267-3.06h-.074v9.99h-3.354V176.21zm3.354 4.461c0 .442.037.848.147 1.253.59 2.176 2.766 4.092 5.567 4.092 3.798 0 6.194-2.691 6.194-6.967 0-3.502-2.176-6.563-6.01-6.563-2.506 0-4.902 1.549-5.64 4.277-.147.405-.258.885-.258 1.327v2.581zM91.95 179.933c.074 4.018 3.06 6.046 6.747 6.046 2.691 0 4.24-.442 5.603-.995l.59 2.396c-1.18.479-3.318 1.217-6.636 1.217-5.898 0-9.548-3.687-9.548-9.033 0-5.271 3.429-9.695 9.217-9.695 6.525 0 8.073 5.529 8.073 8.59 0 .663-.037 1.142-.147 1.474H91.95zm10.802-2.396c.037-1.549-.664-5.309-5.087-5.309-3.798 0-5.383 3.097-5.678 5.309h10.765zM116.541 188.597c-5.383 0-9.512-3.724-9.512-9.18 0-5.824 4.276-9.548 9.807-9.548 5.787 0 9.547 3.945 9.547 9.143 0 6.525-5.05 9.585-9.806 9.585h-.036zm.11-2.47c3.354 0 6.267-2.507 6.267-6.968 0-3.134-1.843-6.82-6.157-6.82-4.239 0-6.266 3.354-6.266 6.931 0 4.276 2.802 6.857 6.119 6.857h.037zM128.964 176.21c0-2.101-.037-4.056-.147-5.898h3.023l.184 3.281h.073c1.402-2.249 3.761-3.724 7.153-3.724 4.718 0 8.368 3.76 8.368 9.032 0 6.378-4.314 9.696-8.958 9.696-2.618 0-5.014-1.032-6.268-3.06h-.073v9.99h-3.355V176.21zm3.355 4.461c0 .442.037.848.147 1.253.59 2.176 2.765 4.092 5.567 4.092 3.797 0 6.193-2.691 6.193-6.967 0-3.502-2.175-6.563-6.009-6.563-2.506 0-4.903 1.549-5.64 4.277-.148.405-.258.885-.258 1.327v2.581zM150.198 161.758h3.355v26.396h-3.355zM159.304 179.933c.073 4.018 3.059 6.046 6.746 6.046 2.691 0 4.239-.442 5.603-.995l.59 2.396c-1.18.479-3.318 1.217-6.636 1.217-5.898 0-9.547-3.687-9.547-9.033 0-5.271 3.428-9.695 9.215-9.695 6.526 0 8.074 5.529 8.074 8.59 0 .663-.036 1.142-.147 1.474h-13.898zm10.801-2.396c.037-1.549-.664-5.309-5.087-5.309-3.797 0-5.383 3.097-5.678 5.309h10.765z"/><path clip-path="url(#b)" fill="#72BF44" d="M182.57 176.21c0-2.101-.038-4.056-.148-5.898h3.023l.184 3.281h.074c1.401-2.249 3.76-3.724 7.152-3.724 4.718 0 8.368 3.76 8.368 9.032 0 6.378-4.313 9.696-8.958 9.696-2.617 0-5.014-1.032-6.267-3.06h-.074v9.99h-3.354V176.21zm3.354 4.461c0 .442.037.848.147 1.253.59 2.176 2.766 4.092 5.567 4.092 3.798 0 6.194-2.691 6.194-6.967 0-3.502-2.176-6.563-6.01-6.563-2.506 0-4.902 1.549-5.64 4.277-.147.405-.258.885-.258 1.327v2.581zM217.37 183.805c0 1.585.074 3.095.295 4.349h-3.059l-.295-2.359h-.111c-1.032 1.364-3.208 2.802-6.083 2.802-4.018 0-5.861-2.728-5.861-5.124 0-4.277 3.907-6.783 11.76-6.71v-.331c0-1.107-.332-4.166-4.461-4.129-1.843 0-3.834.553-5.198 1.474l-.811-2.212c1.732-1.106 4.055-1.696 6.488-1.696 6.083 0 7.336 4.203 7.336 7.631v6.305zm-3.281-4.719c-4.202-.111-8.405.626-8.405 3.944 0 2.065 1.474 3.097 3.318 3.097 2.691 0 4.313-1.659 4.903-3.097.147-.332.184-.7.184-1.032v-2.912zM221.205 176.172c0-2.285-.037-4.092-.147-5.861h2.949l.11 3.723h.111c.921-2.617 3.06-4.166 5.382-4.166.369 0 .664.037.995.111v3.096a6.129 6.129 0 0 0-1.253-.11c-2.47 0-4.166 1.732-4.645 4.276-.11.48-.148.995-.148 1.512v9.4h-3.354v-11.981zM237.315 165.998v4.313h5.05v2.544h-5.05v9.327c0 2.175.59 3.65 2.654 3.65.995 0 1.585-.111 2.101-.258l.184 2.506c-.7.295-1.806.517-3.169.517-1.623 0-2.95-.553-3.724-1.475-.959-1.032-1.327-2.728-1.327-4.719v-9.548h-2.949v-2.544h2.949v-3.391l3.281-.922zM244.614 175.214c0-1.807-.037-3.392-.147-4.903h2.985l.185 3.171h.11c.922-1.734 3.208-3.614 6.489-3.614 2.433 0 6.93 1.365 6.93 8.074v10.211h-3.354v-9.917c0-3.133-1.327-5.639-4.682-5.639-2.433 0-4.24 1.695-4.903 3.465a4.735 4.735 0 0 0-.258 1.474v10.617h-3.355v-12.939zM266.807 179.933c.074 4.018 3.06 6.046 6.746 6.046 2.691 0 4.24-.442 5.605-.995l.59 2.396c-1.18.479-3.319 1.217-6.637 1.217-5.898 0-9.548-3.687-9.548-9.033 0-5.271 3.428-9.695 9.216-9.695 6.525 0 8.074 5.529 8.074 8.59 0 .663-.037 1.142-.148 1.474h-13.898zm10.802-2.396c.037-1.549-.664-5.309-5.088-5.309-3.797 0-5.382 3.097-5.677 5.309h10.765zM283.397 176.172c0-2.285-.037-4.092-.146-5.861h2.949l.109 3.723h.111c.922-2.617 3.061-4.166 5.383-4.166.369 0 .664.037.994.111v3.096a6.112 6.112 0 0 0-1.252-.11c-2.47 0-4.166 1.732-4.646 4.276-.109.48-.147.995-.147 1.512v9.4h-3.355v-11.981zM294.125 184.762c1.105.663 3.023 1.364 4.793 1.364 2.617 0 3.723-1.217 3.723-2.691 0-1.622-1.106-2.397-3.651-3.17-3.539-1.069-5.123-2.876-5.123-5.051 0-2.876 2.397-5.346 6.598-5.346 1.955 0 3.687.516 4.756 1.18l-.811 2.434c-.701-.444-2.211-1.144-4.092-1.144-2.064 0-3.17 1.107-3.17 2.507 0 1.549 1.252 2.212 3.76 3.023 3.428 1.106 5.014 2.618 5.014 5.346 0 3.023-2.471 5.382-7.115 5.382-2.139 0-4.092-.553-5.493-1.327l.811-2.507zM308.685 161.758h3.355v11.612h.075c.59-.995 1.474-1.917 2.617-2.507a7.085 7.085 0 0 1 3.613-.995c2.469 0 6.893 1.365 6.893 8.074v10.212h-3.354v-9.88c0-3.097-1.291-5.641-4.683-5.641-2.395 0-4.239 1.659-4.903 3.354-.22.48-.258.959-.258 1.624v10.543h-3.355v-26.396zM330.77 167.215c-1.254 0-2.065-.959-2.065-2.065 0-1.105.848-2.064 2.139-2.064 1.252 0 2.099.921 2.099 2.064 0 1.106-.81 2.065-2.136 2.065h-.037zm-1.624 3.096h3.355v17.843h-3.355v-17.843zM336.52 176.21c0-2.101-.038-4.056-.147-5.898h3.023l.184 3.281h.074c1.401-2.249 3.76-3.724 7.151-3.724 4.718 0 8.369 3.76 8.369 9.032 0 6.378-4.313 9.696-8.959 9.696-2.617 0-5.014-1.032-6.266-3.06h-.074v9.99h-3.355V176.21zm3.355 4.461c0 .442.037.848.146 1.253.59 2.176 2.766 4.092 5.569 4.092 3.797 0 6.193-2.691 6.193-6.967 0-3.502-2.176-6.563-6.01-6.563-2.507 0-4.902 1.549-5.64 4.277-.147.405-.258.885-.258 1.327v2.581z"/><path clip-path="url(#b)" fill="#00466B" d="M363.949 184.762c1.107.663 3.023 1.364 4.793 1.364 2.617 0 3.725-1.217 3.725-2.691 0-1.622-1.108-2.397-3.651-3.17-3.539-1.069-5.125-2.876-5.125-5.051 0-2.876 2.397-5.346 6.6-5.346 1.953 0 3.685.516 4.756 1.18l-.811 2.434c-.701-.444-2.213-1.144-4.094-1.144-2.064 0-3.17 1.107-3.17 2.507 0 1.549 1.254 2.212 3.76 3.023 3.43 1.106 5.014 2.618 5.014 5.346 0 3.023-2.469 5.382-7.113 5.382-2.139 0-4.094-.553-5.495-1.327l.811-2.507zM394.77 183.251c0 1.844.037 3.466.148 4.903h-2.986l-.185-3.244h-.073c-.922 1.622-2.986 3.687-6.599 3.687-2.692 0-6.746-1.29-6.746-8.148v-10.137h3.353v9.547c0 3.577 1.254 5.973 4.535 5.973 2.323 0 4.092-1.512 4.867-3.171a4.791 4.791 0 0 0 .331-1.695v-10.654h3.355v12.939zM412.834 187.454c-.922.405-3.061 1.143-5.826 1.143-5.899 0-9.695-3.834-9.695-9.143 0-5.604 4.128-9.585 10.433-9.585 2.211 0 4.166.553 5.16 1.069l-.773 2.544c-.922-.479-2.322-.959-4.387-.959-4.461 0-7.004 2.95-7.004 6.709 0 4.129 3.022 6.673 6.893 6.673 2.138 0 3.576-.553 4.609-.995l.59 2.544zM429.238 187.454c-.922.405-3.059 1.143-5.824 1.143-5.899 0-9.696-3.834-9.696-9.143 0-5.604 4.129-9.585 10.432-9.585 2.213 0 4.166.553 5.162 1.069l-.773 2.544c-.922-.479-2.324-.959-4.389-.959-4.459 0-7.004 2.95-7.004 6.709 0 4.129 3.024 6.673 6.895 6.673 2.138 0 3.576-.553 4.607-.995l.59 2.544zM433.33 179.933c.074 4.018 3.061 6.046 6.748 6.046 2.69 0 4.239-.442 5.604-.995l.59 2.396c-1.18.479-3.319 1.217-6.637 1.217-5.898 0-9.549-3.687-9.549-9.033 0-5.271 3.43-9.695 9.217-9.695 6.525 0 8.074 5.529 8.074 8.59 0 .663-.037 1.142-.148 1.474H433.33zm10.803-2.396c.037-1.549-.664-5.309-5.088-5.309-3.797 0-5.383 3.097-5.678 5.309h10.766zM449.404 184.762c1.107.663 3.023 1.364 4.793 1.364 2.617 0 3.725-1.217 3.725-2.691 0-1.622-1.108-2.397-3.651-3.17-3.539-1.069-5.125-2.876-5.125-5.051 0-2.876 2.397-5.346 6.6-5.346 1.953 0 3.685.516 4.756 1.18l-.811 2.434c-.701-.444-2.213-1.144-4.094-1.144-2.064 0-3.17 1.107-3.17 2.507 0 1.549 1.254 2.212 3.76 3.023 3.43 1.106 5.014 2.618 5.014 5.346 0 3.023-2.469 5.382-7.113 5.382-2.139 0-4.094-.553-5.495-1.327l.811-2.507zM463.449 184.762c1.107.663 3.023 1.364 4.793 1.364 2.617 0 3.725-1.217 3.725-2.691 0-1.622-1.108-2.397-3.651-3.17-3.539-1.069-5.125-2.876-5.125-5.051 0-2.876 2.397-5.346 6.6-5.346 1.953 0 3.685.516 4.756 1.18l-.811 2.434c-.701-.444-2.213-1.144-4.094-1.144-2.064 0-3.17 1.107-3.17 2.507 0 1.549 1.254 2.212 3.76 3.023 3.43 1.106 5.014 2.618 5.014 5.346 0 3.023-2.469 5.382-7.113 5.382-2.139 0-4.094-.553-5.495-1.327l.811-2.507z"/></svg>